<?xml version="1.0" encoding="UTF-8"?><svg id="Layer_1" xmlns="http://www.w3.org/2000/svg" width="22.070145371376384" height="18.342077282540231" viewBox="0 0 22.070145371376384 18.342077282540231"><defs><style>.cls-1{fill:#30037c;}.cls-2{fill:#8a2dc7;}.cls-3{fill:#f86cf0;}.cls-4{fill:#f989f4;}.cls-5{fill:#5bcdfa;}.cls-6{fill:#8f3fd4;}.cls-7{fill:#24bcfa;}.cls-8{fill:#82dafb;}.cls-9{fill:#b3e6fb;}.cls-10{fill:#f577f0;}.cls-11{fill:#fab0f7;}</style></defs><path class="cls-2" d="M8.792077989452991,8.09275582054488l-.571156206049636-.797444732372242.487654726020992-.005239476986389-1.014904864479831-1.5454788801635c-.032303964904713-.049191896949196-.105598352252855-.055414443346308-.18181353512955-.078131301877875l.194783938766705-.264907922761267-1.10069281502183-.039189472066937,1.688017836348081-2.200736941869764-.844211870040454-.049018993273421,1.911467026011451-2.169463370422818,2.101316723752461,2.962455789149317-.477876757613558.04741964992354-.325930931947369-.459647912906803-1.368486772802498,1.962934119092097.655425207905864-.014917924783731-.953653647397005,1.299563090173251.834543411121558-.030533118489984-1.034481469445382,1.382337399636526Z"/><path class="cls-2" d="M12.267452632931054,5.965673082087051c-.112916044450685.108317082405847-.166868347407217.291062489910473-.284275492778761.359332312018523l-.632711121388638-.871761666647217.603765845882663.023467571201763-.169795071407862.283951127721593.538424120535637.081919510297666-.055408280843039.12309114540767Z"/><path class="cls-3" d="M17.707042270877537,7.032857221497579l-.417265615586075-.146278705617078c.188228764152882-.030817875647699.380823046994919-.089085348799927.536282770503021-.206303437389579.118484299604461-.089338272409805.146926676210569-.236289938055052.060911478572962-.354670715951215-.094715859657299-.13035530293746-.232908814225084-.212081886917076-.386566844823392-.265647979307687-.270899547085719-.094437173971528-.54533673881815-.148647497997445-.835493764352577-.171219847887187l-1.025027618630702-.07974055431805c-.378419144446525-.029438574916639-.737287279971497-.097244973205306-1.093888304345455-.214330134775082l-1.324604075929528-2.110144491751271-.909751672115817,1.436121031403673-.844845843708754-.284809966122339-.267007916771036-.388380738475462.994771661058621-.088043556846969-.535768611698586-.735595152640599c.150962442627133-.086743245861726.265026455168481-.174408565164413.374557958677542-.268617206011186.002501503759049.015634990717444.01304395094121.017919860252732.020611724638002.018068551646138.066494058333774.001306473282966,1.076363471289369-.73545841525447,2.476061732468224-.892973194462684.445520555313124-.050136571466282,1.063973316566262-.03423297538211,1.389522457935527.231845454953145.165268571130582.13507761625624.190923152080359.339092480779073.055271084609558.507910114401966-.100550602044677.125134212941703-.239114029507618.217211469762333-.390334457813879.284994162471776l-.623072622482141.279284621648912c-.162308497630875.072752783087708-.303305900641135.180519916410049-.406975451271137.318758098363105-.152273784831777.203049507270407-.13926561952394.443484477153106.026142231065023.630729615642849.269263700614829.304812127913465.856931947193516.508783239238255,1.256592077628738.554591275298662l1.055809366444009.121014206442851c.605746738925518.069429163297173,1.430197309018695.125150624415255,1.841148237508605.589904707776441.177044733871298.200224059122775.153489092506788.47693061125392-.024267598237202.652823904227262-.131332716551697.129955974614859-.266904039082874.232004540106573-.44506287958211.287686768295316l-.415753910838248.370475310579423c-.077913439075928.024351269243198-.083515458634793-.124835456543224-.141995592923195-.077452141595131Z"/><path class="cls-11" d="M16.496521370157097,3.708387270603453l-.26222407703608.094739646325252c-.291327520215418.107534840113658-.67115412979183.297807332979573-.643422703309625.563151175621897.030981128391431.296438110070085.58297983079683.422202740073772.934036349237431.457407813846658l1.188010145153385.119137468203917c.513511824396119.051496612970368,1.321809149154433.311512399302956,1.522262383277848.815965996318482.089052368737612.224106076060707.022041663331038.47267876348451-.149182768327591.650604002068576-.21453832979023.222934210634776-.512541947569844.338739856941174-.818944256945542.407085006994748l-.548518499526836.078231317722384c.38006793292152-.098511797743413.546253831958893-.154875645192078.546253831958893-.154875645192078.178158840499236-.055682228188743.313730163030414-.157730793680457.44506287958211-.287686768295316.17775669074399-.175893292973342.2013123321085-.452599845104487.024267598237202-.652823904227262-.41095092848991-.464754083361186-1.235401498583087-.520475544479268-1.841148237508605-.589904707776441l-1.055809366444009-.121014206442851c-.399660130435223-.045808036060407-.98732837701391-.249779147385198-1.256592077628738-.554591275298662-.165407850588963-.187245138489743-.178416015896801-.427680108372442-.026142231065023-.630729615642849.103669550630002-.138238181953056.244666953640262-.246005315275397.406975451271137-.318758098363105l.623072622482141-.279284621648912c.15122042830626-.067782692709443.289783855769201-.159859949530073.390334457813879-.284994162471776.135652067470801-.168817633622893.109997486521024-.372832498145726-.055271084609558-.507910114401966-.325549141369265-.266078430335256-.944001902622404-.281982026419428-1.389522457935527-.231845454953145-1.399698261178855.157514779208213-2.586908102930465,1.006049497998902-2.653402161269696,1.004743024715935-.007567773693154-.000148691391587.131537784103784-.108693414349545.129036280346554-.12432840506699l.614195555333936-.509964504544769c.327544709251015-.281722982759675.678870043853749-.500733460272386,1.073693582342457-.687438305280011.762563112344651-.360602177483088,1.619624570012093-.468906079871886,2.445609073172818-.296809635137834.335088737996557.06981678259217.631961326129385.206599037372143.882176769981015.420609718379637.319748872130731.273483014569138.38541244379303.70022737342515.150486619644653,1.047355380738736-.121614593383129.179698556408766-.285080803285382.313413265137569-.467522040646145.435215473751668l-.207771637582482.138713400056076Z"/><path class="cls-5" d="M18.978405843349719,7.489106985244689c-.25851262678043.032599719628706-.52090639470407.022301205790427-.787760420440463.01149388722115l-.14617451522281-.227397820692204c-.035072883769317.089805284002068-.084588746885856.129648593510865-.116469546355802.180323770944597-.485528543384135-.088779507052095-.940786122740974-.255152801120857-1.371610244357726-.497551929205656-.050770730442309-.028565672564582-.09625070209222-.051104694321111-.144865965918143-.058793165964744-.002798840516334-.013361956831432-.051217440304754-.061621733839274-.059895358062931-.075166447059019l.20326350436153.037824337643542c.219055674719129.007428738694216.945609929280181.086959668258714,1.712162687173986-.04336132325443.306403507125651-.068344597337273.604406384834874-.184150711254915.818944714625104-.407084921889691.171224431658629-.177925238584066.238235137065203-.426497926007869.149182768327591-.650604002068576-.200453234123415-.504453597015527-1.008750558881729-.764469383348114-1.522262383277848-.815965996318482l-1.188010145153385-.119137468203917c-.3510565184406-.035205073772886-.903055220845999-.160969703776573-.934036349237431-.457407813846658-.027731426482205-.265343842642324.352095183094207-.455616335508239.643422703309625-.563151175621897l.26222407703608-.094739646325252-.132235341901833.146090166210342c-.121462386679923.16877514945736-.081143738723767.376058584237398.102060503490065.479711405112539.196956291456445.111433419619061.42200692078768.151031048717414.653306809199421.16748248564727l1.131496617239463.080478833617235c.777608507629338.095534784184565,1.722260266193189.362797098077863,2.230382792109594.953970288132041.328852294547687.382601931836689.332832500756922.904755847257547-.011307241678878,1.275670602024547-.369122863798111.397841631238407-.966413047910464.611059563250819-1.491819665265211.677315933897262Z"/><path class="cls-6" d="M17.289776655291462,6.886578515880501c-.236742330940615.038760790617744-.485003538906312-.014537309347361-.734883546767378-.02673896998931l-.174218762436794.018113392416126-.468608068429603-.753642954974566-.349237304581038.548030770849437-.848211517393793-.238562152822851c-.042704208055511-.01185557252029-.072724879417365-.022362615796737-.102147960016737.020845689945418l-.309311943779903-.483567202512859.433249853464076-.057313512405017-.190413033134973-.319077730135177c.356601024373958.117085161569776.71546915989893.184891559858443,1.093888304345455.214330134775082l1.025027618630702.07974055431805c.290157025534427.022572349889742.564594217266858.076782673915659.835493764352577.171219847887187.153658030598308.053566092390611.291850985166093.135292676370227.386566844823392.265647979307687.086015197637607.118380777896164.057572821031499.265332443541411-.060911478572962.354670715951215-.155459723508102.117218088589652-.348054006350139.17548556174188-.536282770503021.206303437389579Z"/><path class="cls-6" d="M15.562828973076648,6.672340754182187l-.682868703206623,1.076052365722717-.357699902873719-.54919908269585.513612285361887-.078939803690446-.423403156692075-.665629942213855c.029423080599372-.043208305742155.059443751961226-.032701262465707.102147960016737-.020845689945418l.848211517393793.238562152822851Z"/><polygon class="cls-6" points="12.311638624169973 4.920642385904102 11.997287216793666 5.408719415109772 11.466792780461219 4.635832419781764 12.311638624169973 4.920642385904102"/><path class="cls-6" d="M17.138681068106052,9.738761221583445l-.106608124438935.146903950830165.364094834596472.023232197061589-.160580777570431.197484847105443c-.030435659144132.037430267704622-.063306987394753.064994470778402-.06709978152503.11270539536963l-.142930812831764.016441301697341c-.00449986678359-.030722617950232-.02224192032736-.056929180063889-.045664830970054-.085185241141517l-.320366881776863-.386472301257527.479156374516606-.025110149665124Z"/><path class="cls-8" d="M14.654286896088706,8.25274876149615l-.076544499312149.005283374530336-.332530438496178.005283374530336-.696712800639943-.007925061796414-.029042452071735.826042721715567-.026384656961454.757423284203469-.015834015743167.424892845703653c-.01055064121465.282386703995144-.03430971875423.501437345013983-.076528391462489.35100614150906.01055064121465.007925061798232.026384656961454-.007908953946753.021101282429299-.013192328478908l-.031668031493609-.029026344225713-.35363172092184-.453935297777207c.031668031486333-.290295657947354.02374296968992-.575324049210394.005267266678857-.860352440471615l-.065977750244201-.997575207647969-.337797705182311.02111739027896-.747768412424193-.850586997177743c.063336062981762-.047502047234957-.014526824648783.015873869284405.046167551066901-.015794162207385.005283374530336-.015834015744986-.158577070544197-.156898649136565-.150652008745965-.170090977615473.05542710903137,0-.094672717701542-.128703461692567-.049812357730843-.160371493182538l.756917398863152.091055891734868c0,.026384656959635-.739908301104151-.085536955359203-.739908301104151-.109279925052761l.824361754359415.114547191735255c-.07918618657277-.213767266484865-.356424171066465-.373166166908049-.427685295846459-.597484074607564.018475703011063-.01056674906431.005862861615242.01097427352579.008504548883138-.004859742219196.013192328480727-.018475703011063-.009931300592143.017456475765357-.007289613327885-.003644806662123l.01032695221329-.012756823321979.598226535224967-.848599074359299-.419609471173317-.005267266682495.88673709743307-1.406650145454478.868277502264391,1.409275724870895-.432817907501885.007925061798232.741589268462121,1.198150145652107-.57005678252608.007925061796414.820775455031253,1.327463958881708Z"/><path class="cls-2" d="M12.254715236563243,6.441031739551363s-.094653088914129.126892325728477-.111774071008767.137287717649087c-.086116147645953-.064832500704142-.095382737537875-.1713205071228-.158549089846929-.256958869758819.117407145369725-.06826982210805.170144512772822-.247370422948734.283060557223507-.355687505354581.040416265575914.138065633451333-.136660822918202.259100128780119-.012737396367811.475358657464312Z"/><path class="cls-1" d="M21.030369592465831,10.25055697190237l.358915095457633-.213767266484865.234884656758368-.213767266483046c.290295657949173-.308771360958417.380032485736592-.736305893926328.195291563475621-1.126905128725411-.28502839126304-.596425331634236-1.063552957890352-.93159745740013-1.715421506411076-1.082028660903234.192665984057385-.09764578173781.401149876011914-.176815860462739.559490033465408-.337813813030152l.31933811001727-.329888751233739c.490870595949673-.641301799454595.300862407009845-1.38289106791126-.279745016730885-1.905429695352723-.73368031451173-.659777502467477-1.839468052956363-.926330190717636-2.813300290908956-.997591315495811l-.419609471173317-.03166803149179c-.153072890771-.010550641212831-.29557903247769.01056674906431-.435459594769782-.044860359968879.62546778370961-.419609471173317,1.016067018506874-1.071478019690403.715204611500667-1.781399256657096-.134597187759937-.319338110020908-.401149876011914-.546297704984681-.704637862436357-.720471878181343-.430176220233989-.248076985240914-.91049617497265-.34045550029623-1.398741191507725-.387957547533006-.641301799452776-.060694375713865-1.594016647133685.121404859281029-2.164057321810105.422267266287236l-.430176220233989.226959594965592c-.424908953553313.253360359773069-.783824049009127.559490033463589-1.134814082672165.894662159229483l-.37476521905046.358915095455814-.134597187758118.108196422950641-.292937345211612-.374749111202618c.01056674906431-.036951406022126.071261124776356-.044860359970698.118763172013132-.042218672702802.203216625270215.015834015744986.488228908687233-.005283374532155.5040629244304-.063336062981762.029042452073554-.097661889587471-.498779549898245-.617558829762856-.593799752219638-.720487986031003l-.28501228341338-.316696422753012-1.12954681598967-1.279961911643113-.245435297974836-.253360359773069c-.084453453257083-.0870790326735-.182099234994894-.002625579416417-.242793610708759.063352170829603l-.250718672506991.279745016730885-.277103329466627.300846299160185-.250718672505172.274477750048391-.277103329468446.303487986424443-.224334015547356.250718672506991-.300846299158366.327247063967661-.213767266484865.237526344026264-.232242969495928.248076985242733-.324621484551244.353631720925478-.277103329466627.300862407008026-.266552688250158.28502839126304c-.023742969693558.026384656959635-.039576985438543.071261124778175-.03166803149179.095004094471733.007925061798232.023759077541399.036951406022126.071261124778175.073902812046072.07652839146067,0,0,.477223880587189.047876981974696.718071443998269.091653033827242.065633959344268.011929519099795.093873724188597.08972505570091.052917988487025.142382037745847l-.639033931995073.821608932372328-.298220719740129.374765219052279-.353647828776957-.464485938991857c-.253344251923409-.337813813031971-.456560877193624-.746872642990638-.662419189729917-.464485938993676l-1.36969873943417,1.889595679611375-.306129673690521.435459594764325c-.554206658931435.073902812046072-1.095237097231802.155714578037077-1.62305909920542.353647828776957-.633376737656363.234868548912345-1.330105646145967.686162159423475-1.401366770924142,1.382891067913079-.0870790326735.870903081684446.736322001775989,1.351223036421288,1.496386973245535,1.586107693183294-.480319954736842.116121484747055-.899945533759819.303487986422624-1.282619706758851.593799752219638l-.398492080897995.398492080894357c-.105570843534224.105570843534224-.150431203503103.242809718560238-.208499999800551.37476521905046-.18472481441313.422251158439394-.134581079910276.897287738644081.092378515053497,1.301079301922073.390583126947604.686162159425294,1.264127895899946,1.076761394222558,2.04002688311266,1.195508458389668.570040674678239.614917142493141,1.499012552660133.865635815000132,2.314504633162869.90258722102044l.456560877193624.021101282429299c-.241929198093203.14515751885483-.397843397033284.324721037370182-.510436236732858.55765429985513-.124107250201632.256754397216355-.115082786043786.557351412244316.048045927787825.791262619253757.194689726606157.279166725909818.473170337263582.436473403757191.781728418964121.575004587104559.517255252911127.232242969495928,1.074103599108639.324605376701584,1.638877007102565.393224814213681l.395866501479759.007908953946753c-.213767266486684.704653970284198.530463689237877,1.124263441457515,1.163856534745719,1.322196692199213.593799752219638.18738260952523,1.187599504437458.290311765793376,1.81042560088099.324621484551244h1.1611987396318c.767990033262322-.05278542177075,1.506937614452909-.200574938007776,2.232692867168225-.453935297777207l.467127626259753-.187382609527049c.050143734497397-.018459595163222.126672125959885-.100271361154228.197933250739879-.076528391458851.583233003155328.216408953749124,1.171765488692472.356289516037577,1.78930821060203.41962557901752l.345722766982362.007908953950391h.612275455230701l.311413048220857-.007908953950391c.45129361050931-.052785421765293.876186456214782-.153072890769181,1.287886973441346-.340455500292592.229601282229851-.105554735684564.409058829958667-.245435297976655.585890798265609-.422251158439394.356273408197012-.353647828776957.419609471176955-.897303846493742.102929156269965-1.303720989186331-.182099234993075-.234884656762006-.446010235980793-.393224814213681-.720487986025546-.506704611698297l.775898987212713-.290311765791557c.174190281042684-.065977750247839.335172125764075-.137222767174535.482961641999282-.248076985242733.184740922264609-.063336062979943.319338110020908-.190008188943466.467127626259753-.308771360956598.20366446242042-.164506188362793.368584932341037-.362599964857509.466630007842468-.604501213896583.138525984242733-.341777579769769.024643256627314-.844176379063356-.232812524351175-1.108217821236394l-.146738450817793-.150491987516943c.659777502467477-.142506141703052,1.367057052168093-.419625579021158,1.517488255671196-1.111071112976788.139880562288454-.633376737656363-.440726861448638-1.158557052365722-1.018692597921472-1.398725083658064ZM21.492213844193429,11.673041133105471c-.084453453258902.192649876205905-.248076985244552.327247063964023-.435459594769782.419609471169679-.746856535140978.37476521905046-1.799858851820318.27447775005021-2.612709245055157.142522249554531.59115806495538.184740922260971,1.404008458190219.472394892944067,1.820976242095639.934239144668027.240168031294161.269194375516236.240168031294161.633392845506023.015834015746805.915779549506624-.321963689435506.403775455422874-.987024566435139.680878784889501-1.499012552660133.860352440469796l-2.174624070870777.767973925418119-.052785421768931.005283374528517c-.015834015743167.002625579418236-.021101282429299.018475703011063-.007908953946753.036935298172466.746872642987-.116121484747055,1.860569335382024-.126672125959885,2.401583665832732.438101282035859.205858312536293.216408953749124.219050641018839.522538627439644.026400764807477.75742328420165-.356289516039396.443368548712897-1.187599504439277.609633767962805-1.757656286961719.625467783707791-.023742969693558,0-.055411001183529.005283374532155-.076528391458851.010550641212831-.662419189731736.0422347805561-1.330105646145967-.039576985434906-1.992524835881341-.203200517418736l-1.100520471762138-.329888751233739c-.324605376703403-.097645781735991-.636018424924259-.176831968314218-.955356534941529-.226975702813434l-.015834015746805.042234780552462c.300862407009845.063336062979943.606992080698546.184740922260971.85506906593946.403775455426512-.583233003155328.250718672506991-1.15064809841715.395866501479759-1.754998491849619.490886703801152-1.203433520182443.168890798666325-2.755231494609689.129313813225963-3.853110279109387-.387957547531187-.150415095655262-.071261124778175-.28501228341338-.166265219249908-.393224814213681-.282386703998782-.108196422950641-.116121484747055-.081811765991006-.261269313718003.029042452073554-.361556782721891.118747064165291-.102929156269965.263911000987719-.147789516238845.416967783909058-.197933250741698-.110838110218538-.079170078724928-.208483891954529-.211125579216969-.226959594965592-.340439392442931-.868261394418369.084453453257083-2.274911539874665-.03166803149179-2.947881370819232-.564773407995744-.229601282229851-.182099234994894-.287670078529118-.456560877197262-.118763172014951-.691445533957449.343081079712647-.47239489293861,1.137455769936423-.694087221219888,1.733897209422139-.783807941161285-.124046546545287-.22169232827946-.646585173984931-.277119437316287-.957998222207607-.298220719743767-.026400764807477-.00264168726244-.042234780554281-.005283374532155-.050143734502853-.03430971875423-.456560877193624.050143734501034-.921046816185481.023742969693558-1.390816129709492-.029042452075373-.760064971467727-.084437345409242-1.578182631383243-.324605376701584-2.113929695155093-.852427378673383-.612259347381041-.089720719939578-1.253577254685297-.332530438499816-1.599300021664021-.862994127735874-.258627626453745-.398492080894357-.224317907699515-.876170348370579.079186186576408-1.240368818358547.496137862632168-.599083126749974,1.308988255867007-.828684408981644,2.071694914600812-.942164206462621.22960128223167-.034309718757868.504062924432219-.105570843534224.506704611696478-.271836062784132.002641687267896-.052785421767112-.029026344223894-.116121484747055-.084453453257083-.147789516237026l-.242793610708759-.145147828974586c-.583249111004989-.05542710903137-1.385532755177337-.269194375516236-1.78668263119107-.707279549698796-.263911000984081-.290311765795195-.290295657943716-.678253205478541-.058052688447788-.99759131549763.61491714249496-.841876737460552,2.30129619683612-.934239144664389,3.314721528075097-.989666253697578.068619437512098-.147789516238845.179457547726997-.255985939189486.277103329464808-.387941439683345l-.53573095592219-.01055064121465,1.134814082672165-1.59139106771363,1.137455769936423,1.583466005919036-.409058829956848.166265219248089c.029026344225713.036951406022126.047502047234957.065977750247839.052769313917452.110838110216719.007925061798232-.015834015744986.034309718756049-.013192328480727.047518155084617-.005267266680676l.031668031489971-.002641687267896.480319954738661-.073902812044253-.393240922065161.530463689239696c-.118747064163472.163623531983831-.224317907695877.335172125764075-.372107423934722.509346298960736l.419625579021158.07652839146067-.707295657550276.947447580994776.530463689237877.087095140523161-.350990033661219.43808517418438c.01055064121465.002641687264259.02910927287121.025962038080252.039659914084041.023320350812355.026400764809296-.007908953946753.030529243631463.009851593518761.043737679960032.038877937744473l.531503440603046-.004129492259381.562131720727848-.733680314509911-.625467783707791-.007908953946753.731038627243834-1.029259346987601-.498795657747905-.015834015744986.311413048220857-.461844251725779.696728908487785-1.060927378475753c.013192328480727-.02110128242748.044860359970698-.02110128242748.055427109033189-.015834015746805-.034309718756049-.050143734501034-.105570843534224-.05541100118171-.182099234994894-.079170078724928l.192649876207724-.263911000987719-1.100504363912478-.039593093286385,1.68902074160178-2.201008727830413-.84451842472663-.050143734501034,1.910729177734538-2.169356804190102,2.103362946092602,2.963731494413878-.477678267470765.047502047236776-.327247063965842-.459202564459702-1.36969873943417,1.960856804384093.657135815199581-.013192328478908-.955356534941529,1.298437614655995.836593362928397-.029026344223894-1.034526613668277,1.380249380645182c-.044860359970698.058068796299267-.063336062979943.155714578035258-.147789516238845.184740922260971-.002641687266077.036951406020307-.023759077543218.063336062981762-.05542710903137.121388751429549l.968564971270098-.005267266682495-.622842204293192.773257299948455c-.036935298172466.044860359968879-.055411001183529.113479797482796-.116121484747055.158340157453495.32988875123192.047502047234957.907854487704753.197933250739879,1.1638565347439.380032485732954.126672125961704.092378515053497.28502839126304.18738260952523.279745016730885.39586650147794-.005283374530336.263911000987719-.343081079710828.475036580206506-.599083126749974.543656017718604-.007908953948572.039593093288204-.03430971875423.063336062979943-.076528391458851.081811765991006l-1.414559099404869.638676220039997c-.047518155082798.023742969691739-.07654449931033.081811765989187-.07654449931033.118747064165291-.002641687264259.116121484748874.261269313721641.153072890769181.477678267472584.147789516237026l1.934472147428096-.036935298174285,2.712996714055407-.023759077541399c0-.039576985438543-.029026344222075-.060694375717503-.058052688447788-.095004094469914l-.749514330254897-.876186456216601.987040674281161.015834015744986c.01055064121465.007925061798232.026384656961454-.007908953946753.021101282429299-.013192328478908l-.031668031493609-.029026344225713-.35363172092184-.453935297777207-1.14009745720432-1.477895162382993,1.037168300934354.013192328478908c-.118763172013132-.124046546545287-.203216625272034-.250718672506991-.29557903247769-.372107423936541l-.657135815197762-.878828143482679-.197933250739879-.261269313721641.380032485734773.023742969693558.155698470183779.010566749062491h.200574938009595l.05806879629381.005267266682495c-.07918618657277-.213767266484865-.525196422553563-.775898987212713-.588532485537144-.860352440471615l-.638660112186699-.868261394418369.604350393432469.023759077541399-.168890798666325.285012283415199.538372643186449.081811765991006s-.2435952542819.35638499315246-.082597301714486.612370932340127c.03166803149179-.013192328477089.518040788632788-.741684745567909.518040788632788-.741684745567909l-.419609471173317-.005267266682495.88673709743307-1.406650145454478.868277502264391,1.409275724870895-.432817907501885.007925061798232.741589268462121,1.198150145652107-.57005678252608.007925061796414.820775455031253,1.327463958881708c-.049886297289049.003396696349228-.409074937808327.010566749060672-.409074937808327.010566749060672.039593093286385.10819642295246.137238875024195.139864454442431.248076985244552.10819642295246l.601724814012414-.168906906515986-.71256292423277,1.058285691211495.61491714249496-.013192328478908-.844518424724811,1.113696692395024.612275455230701-.002625579416417-.324605376703403.343081079712647-.416983891755081.443368548712897c-.029026344225713-.007925061798232-.031668031489971.029026344225713-.002641687264259.029026344225713.93423914466257-.488228908685414,1.963498491648352-.781166253897027,3.00595016711668-.939522519198363-.005283374532155-.029026344222075-.023759077543218-.055427109033189-.047502047233138-.084453453255264l-.319338110020908-.385299752419087.477678267470765-.026400764807477c.01055064121465-.013192328478908.018475703011063-.044860359970698.031668031489971-.052785421767112l-.61491714249496-.902571113176236h.567415095258184l-.414342204487184-.622826096443532-.237510236180242-.345722766976905.501421237164323-.007925061798232-.475036580206506-.741589268456664c-.036951406022126-.058052688449607-.583249111004989-.94216420646444-.583249111004989-.94216420646444l-.350990033657581.548939392250759-.680894892742799,1.076761394220739-.358915095461271-.548939392247121.514613565646869-.079170078728566-.424892845705472-.665060876995994-.308771360956598-.485587221419337.432817907501885-.055427109033189-.190024296793126-.319338110019089-1.324838379463472-2.111288007890835-.91048006712299,1.435676489678372-.314054735486934.488245016535075-.530463689237877-.773257299946636-.266552688251977-.387957547533006.994949628229733-.087095140523161-.535747063770032-.736305893926328c.150431203504922-.087095140521342.263911000987719-.174174173194842.374749111202618-.269194375516236l.585890798271066-.5040629244304c.327247063967661-.279745016732704.678253205474903-.498795657749724,1.0741197069583-.686162159425294.762706658733805-.36157289057337,1.620417411937524-.469769313524012,2.446460133654909-.298220719743767.335156017914414.071245016930334.630735050388466.208483891954529.881453722897277.422251158439394.319338110020908.271836062784132.385315860265109.699370595753862.150431203506741,1.047735049996845-.121404859281029.179457547728816-.28502839126304.311413048222676-.467127626259753.435443486918302l-.208483891954529.137238875024195-.13195550049204.145147828972767c-.121404859281029.168906906515986-.081811765991006.377390798468696.102929156269965.480319954738661.195291563475621.1108381102149.422251158437575.150431203503103.651852440667426.168906906514167l1.132188503255747.079170078726747c.778524566627311.095004094469914,1.723330460361467.364198469987969,2.230035072054307.955356534943348.32988875123192.382674172999032.332530438499816.902571113174417-.01055064121465,1.274694644960618-.369481844521943.398492080896176-.965907176152541.612275455230701-1.493729178127978.678253205476722-.065977750244201.076528391458851-.179473655578477.089720719939578-.17683196831058.197933250739879.002641687264259.187366501675569.303504094270465.213767266484865.543656017714966.250702564657331.641301799456414.092378515055316,1.538605645950156.303504094274103,1.91863813168311.815492080500917.166265219249908.219050641018839.179457547728816.496153970481828.013192328482546.720471878181343-.377390798468696.51462967349471-1.322196692202851.66770256426571-1.923905398365605.717846298763106l.147789516235207.026384656961454c.630751158245403.116121484745236,1.451510505426995.332530438496178,1.865852709917817.818117659915515.15305678292134.182099234994894.224317907697696.419625579022977.126672125963523.636034532775739ZM14.9472242412985,7.862165634546727h.385299752415449l-.200558830154478.298220719741948-.184740922260971-.298220719741948Z"/><path class="cls-11" d="M10.017368675816215,9.88900018917866c.023742969695377.092362407203836-.063336062981762.184740922259152-.145147828970948.242793610710578-.48296164200292.337813813028333-1.422484161201282.390599234797264-2.058518693973383.424908953551494-.480319954736842.029026344225713-.94216420646444.055411001187167-1.406634037606636.11874706416711-.079186186576408-.09764578173781-.211141687068448-.108196422950641-.343097187562307-.11874706416711-.095004094471733-.007925061792776-.118747064163472-.139880562288454-.137222767174535-.211141687066629l.928955770135872-.092362407205655c.28502839126304-.029026344225713.754797704783414-.13195550049204.746872642988819-.329888751233739-.015834015744986-.456560877193624-2.314504633162869-.519896940173567-2.924138401127493-.533105376503954-.562131720727848-.015834015743167-1.100504363914297-.010550641212831-1.644160381632901-.060694375715684-.583249111004989-.05542710903137-1.385532755177337-.269194375516236-1.78668263119107-.707279549698796-.263911000984081-.290311765795195-.290295657943716-.678253205478541-.058052688447788-.99759131549763.61491714249496-.841876737460552,2.30129619683612-.934239144664389,3.314721528075097-.989666253697578.551581079513198-.031668031489971,1.116338379659283-.047502047234957,1.657352710111809-.129313813227782.007925061798232-.015834015744986.55950614131325-.081811765992825.55950614131325-.081811765992825l-.393240922065161.530463689239696c-.021101282425661.002641687266077-1.177032755374967.29557903247769-1.7549984918478.411700517224745-.519913048025046.105570843534224-1.369698739432351.282386703996963-1.623059099207239.686162159423475-.110838110213081.179473655578477-.044860359967061.364198469989788.113479797482796.488245016535075.403791563276172.319322002171248,1.367057052168093.39586650147794,1.942397209226328.42753453296973.031668031488152.002641687266077.047502047236776-.026384656957816.047502047236776-.047502047234957.263911000984081.042218672704621,1.409275724869076.150431203503103,1.409275724869076.150431203503103l1.430409222999515.126672125961704.926314082867975.126672125963523c.32988875123192.047502047234957.907854487704753.197933250739879,1.1638565347439.380032485732954l.034309718756049.184740922259152Z"/><path class="cls-9" d="M17.372566984678087,16.497325855053532l-1.844735319638858.092378515051678c-.783824049009127.036951406023945-1.54653070774657.007908953946753-2.325055274377519-.050143734501034-.45129361050931-.03430971875423-.884111518013015-.108212530800301-1.322196692193756-.234884656762006-.200574938005957-.058052688447788-.390599234799083-.150431203503103-.543656017720423-.282386703995144-.174190281044503-.153056782923159-.163623531983831-.382674173000851-.013192328478908-.548923284402917.343081079712647-.382674172997213,1.063552957892171-.551581079515017,1.557065241111559-.725755252711679l.926330190715817-.329888751230101c.14250614170669-.047518155086436.266552688251977-.129329921079261.374749111204437-.226975702817072.153072890771-.134597187756299.174190281046322-.343081079709009.018475703007425-.488228908685414-.16626521924627-.15571457803162-.387941439683345-.242793610708759-.612275455227064-.311413048220857-.868261394420188-.269194375516236-2.301296196832482-.337813813030152-3.25665273177583-.348364454241164l-1.810441708732469-.015834015746805-2.731472417068289-.034309718756049c-.535730955920371-.007925061798232-1.042451675466509-.06597775024602-1.562348615640076-.166265219249908-.44865192324869-.087095140523161-1.000233002763707-.258627626455564-1.306362676454228-.575324049208575-.213767266484865-.221692328283098-.256002047039146-.51727136075715-.102929156268146-.786449628427363.316696422753012-.54893939224894,1.082044768754713-.765348346001701,1.660010505227547-.960639909473684.480303846887182-.068619437512098.965907176156179-.108212530798482,1.448868818159099-.158356265301336.018475703011063.071261124778175.506364245838995.048539252655246.601368340308909.05646431444984.131955500495678.01055064121465.359709282458425.115347607650619.438895469033014.212993389384792-.649226861251009.089736827789238-2.359818814271421.371860203469623-2.652772267332693.957734893891029-.084437345409242.168906906517805.04487646781854.361556782721891.17683196831058.453919189927547.585874690423225.416983891758719,2.153506680593637.588532485540782,2.929405667808169.607008188548207l3.061377276151688.07388670419823,1.171765488692472.031668031488152c.527822001975437.013192328478908,1.039793880350771.058068796299267,1.567615882322571.116121484747055l.870919189535925.147789516238845c.335156017918052.058068796297448.665044769149972.182099234994894.979099504635087.335172125765894.187382609528868.095004094469914.348364454246621.216408953749124.472411000791908.380032485732954.137222767174535.182099234996713.113479797480977.4169838917569-.055427109033189.572682361942498-.219050641018839.19793325073806-.443368548716535.232242969495928-.646585173988569.361556782725529l-.514629673492891.079170078724928-.192649876207724.04487646781854-.184740922260971.026384656959635c-.350990033661219.047502047234957-.696712800639943.158356265301336-1.02924323913976.308771360954779-.337813813028333.153072890769181-.667702564260253.456576985043284-.453935297775388.75743939205131.395866501481578.559490033461771,2.296028930149987.48030384689082,3.066644542834183.453919189931185.398508188747655-.010550641212831.778540674476972-.010550641212831,1.171765488692472.031668031488152.232242969497747.023759077543218.464485938991857.039593093288204.667702564263891.142506141710328Z"/><path class="cls-6" d="M20.280855262210935,14.085191548004332c-.321963689435506.403775455422874-.987024566435139.680878784889501-1.499012552660133.860352440469796l-2.174624070870777.767973925418119s-.07388670419823.02375907753958-.060694375715684.042218672700983l-.936880831934104.14252224955635c-.490886703799333.07652839146067-1.22983428498992.153056782919521-1.633609740416432-.031668031488152-.060710483565344-.029042452075373-.10821253080212-.089736827789238-.113479797484615-.142522249559988-.047518155086436-.403775455426512,1.374966006118484-.551564971665357,1.847377006903116-.622826096441713.657135815199581-.09764578173781,1.509563193878421-.221676220431618,2.01626780557126-.6571358152014.14252224955635-.124046546543468.232242969494109-.287670078527299.224334015550994-.47239489293861-.007925061800051-.174190281048141-.11876317201677-.335172125764075-.25071867250881-.44865192324869l-.147789516238845-.129313813225963c-.366840157254046-.229601282229851-.762706658733805-.364198469987969-1.190241191703535-.464485938990038-.686162159425294-.16362353198565-1.372340426700248-.266552688253796-2.0611442733898-.314054735486934l-.211125579222426-.026400764811115c-.857710753203719-.100287469002069-1.707512552458866-.105554735682745-2.573132259614795-.121388751431368l-1.462077254485848-.026400764805658-2.177265758138674-.07652839146067c-.546281597135021-.021117390277141-2.11655527457151-.184740922260971-2.179891337553272-.643943486720673-.063352170829603-.47239489293861,1.208700786864938-.678253205478541,1.718047085827493-.733664206660251l1.269427378279943-.134597187758118c.343081079712647-.036951406022126.659777502465658-.121404859281029.979099504635087-.208499999804189-.007908953948572.039593093288204-.03430971875423.063336062979943-.076528391458851.081811765991006l-1.414559099404869.638676220039997c-.047518155082798.023742969691739-.07654449931033.081811765989187-.07654449931033.118747064165291-.002641687264259.116121484748874.261269313721641.153072890769181.477678267472584.147789516237026l1.934472147428096-.036935298174285,2.712996714055407-.023759077541399h.134597187759937c1.16121484748146.005283374532155,2.317146320427128.097645781739629,3.45460209036537.28502839126304.548939392250759.116121484748874,1.103146051180374.211125579222426,1.63360974042007.380032485732954.59115806495538.184740922260971,1.404008458190219.472394892944067,1.820976242095639.934239144668027.240168031294161.269194375516236.240168031294161.633392845506023.015834015746805.915779549506624Z"/><path class="cls-5" d="M17.235328109653892,17.547702592316455l.179457547728816-.150431203504922c.076544499308511-.060694375717503.129313813227782-.121404859281029.129313813227782-.213767266486684.002641687264259-.469769313522193-1.187599504435639-.519913048026865-1.696945803403651-.51727136075715l-.928955770134053.00264168726244-2.021567287949438.03166803149179c-.121388751431368.002641687266077-.226959594965592.047502047238595-.356273408191555.013192328480727-.013192328477089-.002641687266077-.044876467820359.007925061796414-.05542710903137.010566749062491-.013192328480727.005267266682495-.026384656957816.023742969695377-.018475703012882.044860359968879-.287653970679457-.03430971875423-.575324049206756-.021117390273503-.878812035631199-.002641687264259l-1.279978019496411.081811765989187c-.625467783707791.039593093290023-1.448868818159099.023759077545037-1.93183046015838-.314054735486934-.110838110218538-.079170078724928-.208483891954529-.211125579216969-.226959594965592-.340439392442931-.023759077541399-.158356265301336.029026344225713-.311413048224495.145147828972767-.432817907501885.496153970481828-.517271360760788,1.422484161199463-.707279549706072,2.116571382421171-.897303846495561l.965907176157998-.2639110009859c.234884656760187-.063336062979943.585890798269247-.255985939187667.554222766779276-.467111518408274-.042234780552462-.253360359773069-.551581079513198-.393224814213681-.873544768948705-.451293610511129-1.153289785683228-.213767266486684-2.293387242887547-.171532485930584-3.465152731580019-.047502047236776l-1.784040943924992.187382609527049c-.456560877193624.050143734501034-.921046816185481.023742969693558-1.390816129709492-.029042452075373-.760064971467727-.084437345409242-1.578182631383243-.324605376701584-2.113929695155093-.852427378673383l-.174174173196661-.224317907697696c-.274461642200549-.401149876013733-.245435297976655-.897303846493742.06597775024602-1.272052957698179.498795657747905-.609633767962805,1.522771630203351-.831326096244084,2.282836601671079-.939522519196544-.577965736472834.195291563471983-1.343314082474535.411700517224745-1.660010505227547.960639909473684-.153072890771.269178267670213-.110838110216719.564757300144265.102929156268146.786449628427363.306129673690521.316696422753012.857710753205538.488228908685414,1.306362676454228.575324049208575.519896940173567.100287469003888,1.026617659719705.158340157451676,1.562348615640076.166265219249908l2.731472417068289.034309718756049,1.810441708732469.015834015746805c.955356534943348.010550641211012,2.388391337355642.079170078724928,3.25665273177583.348364454241164.224334015543718.068619437512098.446010235980793.155698470189236.612275455227064.311413048220857.155714578038896.145147828976405.134597187763575.353631720929116-.018475703007425.488228908685414-.10819642295246.09764578173781-.232242969497747.179457547730635-.374749111204437.226975702817072l-.926330190715817.329888751230101c-.493512283219388.174174173196661-1.213984161398912.343081079714466-1.557065241111559.725755252711679-.150431203504922.166249111402067-.160997952565594.395866501479759.013192328478908.548923284402917.15305678292134.13195550049204.343081079714466.224334015547356.543656017720423.282386703995144.438085174180742.126672125961704.870903081684446.200574938007776,1.322196692193756.234884656762006.778524566630949.058052688447788,1.541231225368392.08709514052498,2.325055274377519.050143734501034l1.844735319638858-.092378515051678c.211125579218788.044876467816721.432817907498247.150431203503103.527822001971799.366840157252227.142506141710328.319338110019089-.311413048220857.61491714249496-.665060876995994.683536580010696Z"/><path class="cls-6" d="M8.148403876733028,16.193211384773349c-.867259559978265.085991093061239-2.274824508125675-.031962526414645-2.947235117848322-.564967876913215-.230171195684306-.1824517297282-.289046002013492-.455133106643189-.118047873585965-.690366978160455.342702012934751-.471438617611057,1.137820497611756-.693661390821944,1.734312630156637-.784238165939314-.125035365934309-.220651834288219-.539122248761487-.249430703626786-.850845041170032-.272720956345438-.027302191701892-.002039873119429-.150785768360947-.030268079966845-.158652168622211-.058728168123707l1.783984520478043-.18928215120286c1.172006904100272-.124350848049289,2.312101061683279-.164928425580001,3.464766081546259.048181825379288.321957445667067.05952504054585.832485548724435.197185320803328.873109606443904.450908224544037.033867716056193.211525281914874-.319302626403442.404324222763535-.552329874757561.468168558067191l-.966648498015275.264840404992356c-.693543535024219.190015658303309-1.621434265834978.377643384124895-2.116001505308304.895626539841032-.117359708094227.122916253039875-.169839827582109.274578683762229-.146412759317172.432578743861086Z"/><path class="cls-6" d="M5.927120226288935,10.346140882987129c-.484235413954593.048278558630045-.968971293941649.089500547623174-1.449958115805202.158064709678001-.760159691368244.108359958940127-1.784313617903535.33062266939487-2.283127990678622.938006517797476-.309674650967281.377076907812807-.339401356752205.871344595841947-.064309468642023,1.273246169273989l.174463878094684.223948540642596c-.613067099782711-.089608107975437-1.253462114113063-.330921774761009-1.599665440338867-.862244912374081-.259038909965966-.397550676098035-.225996715114889-.875265602051513.077746320936058-1.240984411801037.497649724553412-.599190247463412,1.309425888974147-.827660052067586,2.072369661074845-.941732892237269.229727899450154-.034348158951616.505547702439799-.106143825494655.507821558481737-.271637629717588.000744801680412-.054207505258091-.030488980393784-.116974047785334-.084295194086735-.147406577689253l-.243932031689837-.146393639541202c.544661246918622.05178174069988,1.082729981504599.045984692109414,1.645082197777811.060017069990863.608872787097425.015193205934338,2.907905603511608.078584932223748,2.923844658198504.53535792369621.006900026146468.197737296646665-.4631467451145.300832950437325-.748542488327075.329287075692264l-.927497544995276.092472056589031Z"/><path class="cls-9" d="M18.877575911715212,10.151621174954016l.475066574832454.039905941848701.146112257945788.027097076903374c.632976479195349.117387908272576,1.451162531328009.331596192792858,1.865542049574287.818986439073342.153408141446562.180437566405089.22570189149701.417839829740842.128219356127374.636497094927108-.085273983728257.191272990636207-.249388835960417.326284321537969-.436516253874288.419857462626169-.745130965500721.372603040959802-1.799198745127796.273133152013543-2.613089956972544.14034702974277-.53063200672841-.166958369745771-1.084408058908593-.26348360323027-1.633775094080193-.380278846952933.125811763879028-.055694396032777.2609428963151-.07939114819419.386917809621082-.09616351206023l.961126563892321-.127964878331113c.324859091517283-.043251904255158.871865479093685-.162003142258982,1.006928715974936-.399235995517301.060922774846404-.107008272863823-.0096545597371-.229906677604959-.109846468669275-.295019155968475-.498163048243441-.323745011422943-1.499752613162855-.335888056555632-2.140833237983315-.296368627869015-1.011071844666731.062327545265362-1.980878576890973.287430347492773-2.925240803077031.638428425589154l-.421396357269259.139342195454446.454718917037098-.243176216641587c.93468379083788-.488118197034055,1.962021903353161-.78134574622527,3.004046421541716-.938346694130814l.142930812831764-.016441301697341c.568279746490589-.065369101148463,1.138317130968062-.115411668155502,1.709088692547084-.067466436996256Z"/><path class="cls-4" d="M18.974508693604548,16.951261152830739c-.356289516039396.443368548712897-1.187599504439277.609633767962805-1.757656286961719.625467783707791l-.095105339099973.012551450307001c.005283374528517,0-.067440796115989-.093761853848264-.059531842169235-.091120166582186.353647828775138-.068619437513917.980679902986594-.314656097938496.838173761276266-.633994207957585-.095004094473552-.216408953749124-.316696422753012-.321963689435506-.527822001971799-.366840157252227-.203216625272034-.102913048422124-.435459594766144-.11874706416711-.667702564263891-.142506141710328-.3932248142155-.042218672700983-.773257299944817-.042218672700983-1.171765488692472-.031668031488152-.770615612684196.026384656959635-2.670778041352605.105570843530586-3.066644542834183-.453919189931185-.213767266484865-.300862407008026.078253276660689-.60156320140959.386920342110898-.807169925201379.462241345223447-.307904338467779,2.415813199735567-.573095563295283,2.634863840754406-.771028814033343.168906906514167-.155698470185598.192649876207724-.390583126945785.055427109033189-.572682361942498-.124046546545287-.163623531983831-.28502839126304-.28502839126304-.472411000791908-.380032485732954-.314054735485115-.153072890771-.643943486717035-.277103329468446-.979099504635087-.335172125765894l-.870919189535925-.147789516238845c-.527822001971799-.058052688447788-1.039793880347133-.102929156268146-1.567615882322571-.116121484747055l-1.171765488692472-.031668031488152-3.061377276151688-.07388670419823c-.775898987214532-.018475703007425-2.343530977384944-.190024296789488-2.929405667808169-.607008188548207-.13195550049204-.092362407205655-.261269313719822-.285012283409742-.17683196831058-.453919189927547.292953453061273-.585874690421406,1.443601551476604-.807567018702684,2.092828412727613-.897303846491923.464469831142196-.063336062979943.926314082869794-.089720719941397,1.406634037606636-.11874706416711.636034532772101-.03430971875423,1.575557051970463-.087095140523161,2.058518693973383-.424908953551494.081811765989187-.058052688451426.168890798666325-.150431203506741.145147828970948-.242793610710578l-.034309718756049-.184740922259152c.126672125961704.092378515053497.28502839126304.18738260952523.279745016730885.39586650147794-.005283374530336.263911000987719-.343081079710828.475036580206506-.599083126749974.543656017718604-.319322002169429.087095140523161-.63601842492244.171548593782063-.979099504635087.208499999804189l-1.269427378279943.134597187758118c-.509346298962555.05541100118171-1.781399256657096.261269313721641-1.718047085827493.733664206660251.063336062981762.459202564459702,1.633609740418251.622826096443532,2.179891337553272.643943486720673l2.177265758138674.07652839146067,1.462077254485848.026400764805658c.865619707155929.015834015748624,1.715421506411076.021101282429299,2.573132259614795.121388751431368l.211125579222426.026400764811115c.688803846689552.047502047233138,1.374982113964506.150431203501284,2.0611442733898.314054735486934.42753453296973.100287469002069.823401034449489.234884656760187,1.190241191703535.464485938990038l.147789516238845.129313813225963c.13195550049204.113479797484615.242793610708759.274461642200549.25071867250881.44865192324869.007908953943115.184724814411311-.081811765994644.348348346395142-.224334015550994.47239489293861-.50670461169284.435459594769782-1.359131990371679.559490033463589-2.01626780557126.6571358152014-.472411000784632.071261124776356-1.894895161989552.219050641015201-1.847377006903116.622826096441713.005267266682495.05278542177075.052769313919271.113479797484615.113479797484615.142522249559988.403775455426512.184724814407673,1.142723036617099.108196422948822,1.633609740416432.031668031488152l.936880831934104-.14252224955635c.746872642987-.116121484747055,1.860569335382024-.126672125959885,2.401583665832732.438101282035859.205858312536293.216408953749124.219050641018839.522538627439644.026400764807477.75742328420165Z"/><path class="cls-6" d="M12.514521611529744,16.730510783553655l.603481269914482.090360831858561c.301849846298865.063083846136578.563952734399209.232123376434174.812446792049741.452541076580019-.582530472522194.250551003902729-1.149132441500115.396798123354529-1.753572784047719.491696474480705-1.203351249188927.16898436329393-2.755238539053607.127370628615608-3.854263393151996-.38968958674559-.149521274361177-.070345544998418-.285806727348245-.165595552540253-.393580997784738-.282262151582472-.10653054355862-.115320253718892-.08202408735815-.261967204944085.030414328719417-.359857245279272.119293431307597-.103858087031767.264597169791159-.148237021378009.417704686946308-.199867685934805.481543381083611.337567438828046,1.303890192435574.353177904999029,1.930393402924892.313889042028677l1.281335699311967-.080354293268101c.303510632640609-.019033561928154.637325487195994-.071854400421216.925640995117647-.036456462137721Z"/><path class="cls-8" d="M7.693671644944516,5.744592731022749l1.014904864479831,1.5454788801635-.487654726020992.005239476986389.571156206049636.797444732372242c-.043099590724523.057592308730818-.063157633418086.154035015586487-.147816738101028.184261844362481l-.353988275786833.005514696968021.392535980266985.553813598064153c-.126515894333352.052640081286881-.103544113362659.235365637396171-.31612012815458.263740580629019l-.423100942756719.056476104533431c-.031965876538379.004266849829946-.048926580799161.016350437561414-.050752986706357.040359835467825l-1.429297438213325-.127082400327708.561495257876231-.731942601883929-.62496130575164-.009662370406659.731338194706041-1.029118416599886-.499316499710403-.014010988043083.31156245334023-.462549359492186.695777302378701-1.059814299816935c.01386871640716-.02112495466281.044660832174486-.021582323479379.054238782104221-.018149312976675Z"/><path class="cls-6" d="M18.978405843349719,7.489106985244689c-.066529811581859.0768482047406-.180766023786418.091261878531441-.178758358710184.199050292014363.003462353535724.185888373127455.304059544127085.214758540123512.543835276312166.249516266205319.640873838190601.092900633089812,1.538104659335659.30327308930282,1.91991154135394.815390093030146.164194509627123.22023385187822.177468184247118.498542152829032.012567602785566.722394288182841-.378004786976817.513140572265911-1.321378402772098.667557089971524-1.923319418543542.71606919212536l-.475066574832454-.039905941848701-.177370941379195-.253940176959077.302474048097793.008962029369286c.03394216093875.001005675181659.048114541066752-.019937528973969.055568494048202-.038903933076654.209277386595204-.054093632374133.434229116777715-.144085005684246.599288318546314-.300173612668004.162739618255728-.153895087596538.143720570245932-.374494238853003-.024380896200455-.520310389350925-.187268602006952-.16244228697542-.426968223233416-.258864636098224-.671832061449095-.322948121060108l-.397300774071482-.10397786118665c.037584690722724-.045928239995192.081188901989663-.026781800575918.112844836959994-.023993663970032.014421372517972.001270180666324.033671397784929-.016402417684731.023995477637072-.042323823627157l.150733504779055-.003714563996255-.660950495774159-1.049696185962603c.266854025736393.010807318569277.529247793660033.021105832407557.787760420440463-.01149388722115Z"/><path class="cls-2" d="M14.021509984794648,11.173875607778427l-.454718917037098.243176216641587c-.054633431424008.018065515156195-.132313375252124.063070850210352-.171251345600467.095120919249894-.009501711600024.007820913879186-.03769607490176-.00049865924484-.040999669665325.022958617157201-.001917811539897.013617479929962-.000747726313421.02440350283905.001989117259654.035976223394755l-.13411610536059-.00042105358807c-.000399780627049-.041053707063838-.030442973740719-.061725463283437-.058349764985905-.094342594669797l-.750007578299119-.876600090283318.994392691318353-.008391007626415.069190102498396-.61262413967961c.010430226415338-.092351481687729.01723173879509-.185076758427385.020388832868775-.277961733265329l.021086229957291-.620378707237251.029991407755006-.823717957033296,1.545378564977-.0551635924312-.710768310753338,1.059209429948169.612922288302798-.013216107256085-.844910717009043,1.115021516041452.614053074157709-.003641912684543-.326310153279337.343306104714429s-.448560929875384.472142932392671-.41795974710476.471689868607427Z"/><path class="cls-6" d="M5.848443574056546,9.014091757223468c-.265609952737577-.013564511496952-.531473157721848-.050241189290318-.794852222226837-.092799820236905-.394649348498206-.063770201357329-.996363990998361-.178502941980696-1.206248247077383-.491134069225154-.090562440358553-.134896434563416-.048360563219831-.304766976907558.061640167969017-.422225627477019.46793493658879-.499660371449863,1.741591466992759-.601664073839856,2.346796526888284-1.051555777479734.117432418041062-.131425088058677.202477906854256-.215660619831397.244595672738797-.235099588702724-.119619915398289.161537239268-.397830293786683.567212409434433-.54471987134275.742654275336463l.419762541234377.077213443735673-.708364986225206.947571747599795.531877205679848.084912764661567-.350486787638147.440462651788039Z"/><path class="cls-7" d="M17.565198544899431,17.179847105005138c0,.092362407205655-.037902123411186.217522644677956-.119063684331195.266070886418674,0,0-.122708490991499.083830553252483-.305810845384258.141361586327548-.662419189731736.0422347805561-1.330105646145967-.039576985434906-1.992524835881341-.203200517418736l-1.100520471762138-.329888751233739c-.324605376703403-.097645781735991-.636018424924259-.176831968314218-.955356534941529-.226975702813434l-.345722766978724-.052769313919271s-.274461642200549-.04487646781854-.261269313719822-.050143734501034c.029591519629321-.032516845109058.290311765791557-.021117390277141.411700517222926-.023759077543218l2.021567287949438-.03166803149179.928955770134053-.00264168726244c.509346298968012-.002641687269715,1.720686564960488.043845029915246,1.718044877692591.513614343437439Z"/><path class="cls-3" d="M6.160869386924787,6.506033295750058c-.540091924456647.080418753746926-1.106060320042161.097529291233514-1.656273924369088.127846170722478.069048392322657-.147542355256519.179402375781137-.254148325664573.27667542933159-.385829300823389l-.534507609920183-.010630689384925,1.132465886334103-1.591408272886838,1.138043934977759,1.582459285989898-.407711231397116.165696757238038c.028518991788587.038319338664223.047729414405694.066740488889991.051307515042936.111866049144737Z"/><path class="cls-6" d="M17.928001361330644,7.453526822718231l-.533870543978992.848598058770222c-.224485152601119-.025630869922679-.436725399020361-.150404022591829-.685497561815282-.140693857783845l-.239649500963424-.345459147614747.501525684292574-.01043401143761-.473726086976967-.741042243002084c-.037022004726168-.057912937825677-.119832120089995-.200432170668137-.132244868629641-.259691928182292.048615263825923.007688471645452.141081903271697.122605527480118.191852633714007.151171200044701.430824121616752.242399128084799.886081700973591.408772422153561,1.371610244357726.497551929205656Z"/><path class="cls-2" d="M13.042377806915283,9.25811209571566c.019004832567589.284017397380012.026474621205125.569970453310816-.005895882342884.860230395879626l-1.139119570694675-1.476970522184274,1.034933188178911.013791562869301c-.117366201280674-.125198054831344-.202716348314425-.251317157686572-.294258839154281-.373675010041552l.337657242796922-.019932257409891.066683861216006.996555830886791Z"/><path class="cls-6" d="M17.394130817351652,8.302124881488453l-.168912189761613.253467463569905.383678199334099.004403833596371-.503071684182942.664365049444314.453169162876293-.001882993683466-.222558915298578.281158037680143c-.050067374570062.063249970315155-.101780369219341.13167449057255-.166942465868487.181471318788681l-.614365833673219-.902513219969478.567091957735101.001424983400284-.413585792975937-.622588330610597c.248772162794921-.009710164807984.461012409214163.115062987861165.685497561815282.140693857783845Z"/><path class="cls-10" d="M18.700204970336017,9.897680997994939l.177370941379195.253940176959077c-.570771561579022-.047945231159247-1.140808946056495.002097335847793-1.709088692547084.067466436996256.003792794130277-.047710924591229.036664122380898-.075275127665009.06709978152503-.11270539536963l.160580777570431-.197484847105443-.364094834596472-.023232197061589.106608124438935-.146903950830165c.009928819123161-.013681722322872.01808319562042-.043926397172982.030811856344371-.053653630699046.065162096649146-.049796828216131.116875091298425-.118221348473526.166942465868487-.181471318788681.340696561794175.278463912663938.922748583187058.380977677170449,1.363769580017106.394044725899221Z"/><path class="cls-2" d="M8.644261251351963,8.277017664907362c-.002096943733704.03720571212034-.024027635146922.062607980275061-.053963909118465.11993154015363l.969081367313265-.003830029383607-.624323172505683.772713531112458-.252246581208965-.329486746850307-.392535980266985-.553813598064153.353988275786833-.005514696968021Z"/><path class="cls-5" d="M8.93505553704108,9.165832706789843c-.036165460564007.04476133830758-.055564411848536.113612154773364-.116373056653174.159017137917544l-.925847582173446-.127927364137577c.001826405907195-.024009397906411.018787110167978-.036092985637879.050752986706357-.040359835467825l.423100942756719-.056476104533431c.212576014791921-.028374943232848.189604233821228-.211100499342137.31612012815458-.263740580629019l.252246581208965.329486746850307Z"/><polygon class="cls-2" points="15.332758662348169 7.86274988801506 15.132325160654545 8.159470353411052 14.946675616992252 7.861644169069223 15.332758662348169 7.86274988801506"/><path class="cls-7" d="M17.196052654889172,11.757869861062318c-.125974913305981.016772363866039-.261106045742054.040469116027452-.386917809621082.09616351206023-1.135044045389805-.187140098216332-2.291711181605933-.279281194618306-3.452605675516679-.282925788900684-.002736843573075-.011572720555705-.003906928799552-.022358743464792-.001989117259654-.035976223394755.003303594763565-.023457276402041.031497958065302-.015137703278015.040999669665325-.022958617157201.563676995825517-.152052135310441,1.137076886050636-.240461259552831,1.735352876068646-.295605933206389.487830755439063-.044964645507207.957819996183389-.05434312223224,1.438027579311893.023019292142635.293548060475587.047291187167502.739083767344709.190240491125223.663575303402467.394519307465089-.015878610811342.042957618950823-.039788148671505.075994232154699-.036442826050916.123764450991075Z"/><path class="cls-10" d="M6.255779799609627,6.956376462804656c-.605205059895525.449891703639878-1.878861590299493.551895406029871-2.346796526888284,1.051555777479734-.110000731188848.117458650569461-.15220260832757.287329192913603-.061640167969017.422225627477019.209884256079022.312631127244458.811598898579177.427363867867825,1.206248247077383.491134069225154.000157205431606.021463108925673-.016671033359671.048655407943443-.047706727176774.046966949634225-.576042778595365-.031338890696134-1.538549999328097-.107982562951292-1.941901514481287-.42776747120115-.158116787619292-.125358057481208-.225973629821965-.309437337898999-.113404657558931-.489148157303134.25279803936246-.403579617763171,1.05701341553322-.57207400398147,1.571881937152284-.704779552010223.577462890618335-.148839026176574,1.185283401224297-.226683163748021,1.733319409844626-.390187243301625Z"/><path class="cls-5" d="M17.196052654889172,11.757869861062318c-.003345322620589-.047770218836376.020564215239574-.080806832040253.036442826050916-.123764450991075.075508463942242-.204278816339865-.370027242926881-.347228120297586-.663575303402467-.394519307465089-.480207583128504-.077362414374875-.95019682387283-.067983937649842-1.438027579311893-.023019292142635-.59827599001801.055144673653558-1.171675880243129.143553797895947-1.735352876068646.295605933206389.038937970348343-.032050069039542.116617914176459-.077055404093699.171251345600467-.095120919249894l.421396357269259-.139342195454446c.944362226186058-.350998078096382,1.914168958410301-.576100880323793,2.925240803077031-.638428425589154.641080624820461-.039519428686617,1.642670189739874-.027376383553928,2.140833237983315.296368627869015.100191908932175.065112478363517.170769243515679.188010883104653.109846468669275.295019155968475-.135063236881251.23723285325832-.682069624457654.355984091262144-1.006928715974936.399235995517301l-.961126563892321.127964878331113Z"/><path class="cls-6" d="M18.68860895421949,8.49346286947457c.00967592014058.025921405940608.050059482109646.114664165745126.035638109591673.113393985076982-.031655934970331-.002788136605886-.122640273781144-.032455984524859-.160224964503868.013472255470333l.397300774071482.10397786118665c.244863838215679.064083484961884.484563459442143.160505834084688.671832061449095.322948121060108.168101466446387.145816150497922.187120514456183.366415301754387.024380896200455.520310389350925-.165059201768599.156088606983758-.39001093195111.246079980293871-.599288318546314.300173612668004-.05647263893843-.026045767692267-.086898525747529-.084514000449417-.12700908896295-.136245335632339l-.393935474010505-.50806586622457.441394340461557.005748332121584-.457763772465114-.618665983129176-.068832017881505-.099228317150846c.058470120693528.018837302519387.1771281099318-.016355754543838.236507454595994-.017819054797656Z"/><path class="cls-11" d="M18.190645422909256,7.500600872465839l.660950495774159,1.049696185962603s-.347097082994878-.002828512784617-.350896996882511.006342459875668c-.008996075579489.021711745468565.47799836816921.672536706248138.47799836816921.672536706248138l-.441394340461557-.005748332121584.393935474010505.50806586622457c.040110563215421.051731335182922.07053645002452.110199567940072.12700908896295.136245335632339-.00745395298145.018966404102684-.021626333109452.039909608258313-.055568494048202.038903933076654l-.302474048097793-.008962029369286c-.441020996830048-.013067048728772-1.023073018222931-.115580813235283-1.363769580017106-.394044725899221l.222558915298578-.281158037680143-.453169162876293.001882993683466.503071684182942-.664365049444314-.383678199334099-.004403833596371.168912189761613-.253467463569905s.578476116796082-.94584169094378.650340090334794-1.028921829714818l.14617451522281.227397820692204Z"/></svg>